<svg version="1.1" id="Layer_1" xmlns="http://www.w3.org/2000/svg" xmlns:xlink="http://www.w3.org/1999/xlink" x="0px" y="0px"
	 width="100%" viewBox="0 0 1024 1024" enable-background="new 0 0 1024 1024" xml:space="preserve">
<path fill="#FFFFFF" opacity="1.000000" stroke="none" 
	d="
M917.000000,1025.000000 
	C611.333313,1025.000000 306.166656,1025.000000 1.000000,1025.000000 
	C1.000000,683.666687 1.000000,342.333344 1.000000,1.000000 
	C342.333344,1.000000 683.666687,1.000000 1025.000000,1.000000 
	C1025.000000,342.333344 1025.000000,683.666687 1025.000000,1025.000000 
	C989.166687,1025.000000 953.333313,1025.000000 917.000000,1025.000000 
M766.004333,573.379150 
	C765.689636,578.793518 765.375000,584.207825 765.055786,589.699097 
	C773.704773,589.699097 781.883301,589.699097 791.045105,589.699097 
	C785.108887,585.538940 784.029724,580.145874 783.946899,574.298523 
	C783.689941,556.154968 783.361938,538.012451 783.150085,519.868469 
	C783.138367,518.870667 783.639587,517.419678 784.390930,516.930481 
	C790.775757,512.772888 796.882263,507.847260 803.824402,504.960999 
	C816.172302,499.827240 826.164062,505.448853 829.080322,518.428467 
	C830.162964,523.247131 830.421570,528.325684 830.461975,533.290527 
	C830.614624,552.050781 830.523254,570.812988 830.523254,589.684387 
	C838.120911,589.684387 846.290161,589.684387 855.331970,589.684387 
	C848.842285,584.902771 848.472839,578.568176 848.440430,572.186096 
	C848.372009,558.691223 848.767578,545.182373 848.261475,531.705994 
	C847.989990,524.479248 847.109253,517.036438 844.958374,510.175568 
	C841.760010,499.973602 833.972900,495.201111 823.321960,494.935791 
	C814.308899,494.711273 806.327576,497.894409 798.877258,502.487671 
	C793.228394,505.970306 787.876709,509.934967 782.276001,513.764954 
	C781.898865,512.955078 781.513855,512.228271 781.213379,511.468018 
	C776.411194,499.317474 768.761536,494.314880 755.775330,495.039368 
	C744.081299,495.691772 734.808044,501.988403 725.560974,508.281067 
	C723.732849,509.525116 721.953125,510.840302 719.731506,512.421265 
	C719.731506,506.094360 719.731506,500.701965 719.731506,495.043762 
	C709.727173,496.027496 700.060913,496.978027 690.394653,497.928528 
	C691.699890,498.938171 692.974609,499.247345 694.245422,499.571686 
	C701.448120,501.409790 701.448425,501.411011 701.448608,508.843658 
	C701.449036,522.505493 701.448669,536.167358 701.448669,549.829163 
	C701.448669,563.083740 701.448669,576.338257 701.448669,589.686035 
	C709.075073,589.686035 717.248474,589.686035 726.299072,589.686035 
	C720.519592,585.458557 719.460449,579.963928 719.428467,574.199524 
	C719.328552,556.206543 719.332581,538.212646 719.403198,520.219543 
	C719.408447,518.872375 719.847473,516.892761 720.783936,516.285645 
	C727.174805,512.142578 733.356628,507.251953 740.359802,504.573975 
	C752.068787,500.096466 761.624084,505.851654 764.567017,518.055420 
	C765.494629,521.901855 765.888916,525.956116 765.934143,529.921997 
	C766.095398,544.081848 766.001709,558.244568 766.004333,573.379150 
M676.217773,572.468140 
	C676.216919,550.650635 676.083191,528.831665 676.333801,507.017059 
	C676.380676,502.939453 675.018982,501.242828 671.401794,499.825928 
	C657.303711,494.303558 642.789185,493.542786 628.184143,496.316956 
	C606.519592,500.432068 590.951050,512.022766 585.416992,534.362488 
	C579.891846,556.666260 588.816467,577.714111 607.541992,586.427551 
	C620.962341,592.672302 634.814941,592.738159 648.907837,588.379395 
	C652.187012,587.365112 655.995422,587.167786 659.407471,587.658081 
	C667.153442,588.771240 674.804382,590.545776 682.493958,592.051514 
	C676.520691,586.865051 676.276428,580.192322 676.217773,572.468140 
M283.249207,502.777130 
	C271.064514,509.421295 263.142334,519.450073 259.531464,532.837524 
	C253.437866,555.429871 261.956757,577.122192 280.808746,586.169312 
	C294.511383,592.745361 308.673035,592.814392 323.076202,588.211792 
	C326.052460,587.260742 329.540771,587.019470 332.632263,587.495422 
	C340.604797,588.723022 348.487366,590.535156 356.405884,592.113770 
	C350.409729,586.918640 349.962799,580.215881 349.982971,573.249268 
	C350.047089,551.100952 349.898956,528.951355 350.108368,506.804871 
	C350.144470,502.986511 348.876465,501.215363 345.433990,499.968201 
	C324.558746,492.405518 304.058533,492.952301 283.249207,502.777130 
M224.786774,556.458008 
	C225.984726,557.351685 227.289398,558.133362 228.363693,559.156799 
	C236.593735,566.997498 234.471756,582.662476 224.654816,586.800110 
	C211.625031,592.291870 189.865982,583.848389 184.237320,570.981384 
	C183.105591,568.394287 182.625809,565.521973 181.677277,562.190491 
	C177.929062,568.442871 174.549194,574.080750 171.210083,579.650635 
	C179.971039,587.101318 194.459717,591.514648 208.972473,591.325500 
	C219.008774,591.194702 228.457993,589.155151 236.644791,582.901733 
	C249.919525,572.762085 252.616714,548.905029 232.555603,539.658142 
	C225.710373,536.502930 217.969803,535.331360 210.719345,533.001221 
	C204.918442,531.136963 198.817581,529.624695 193.614868,526.627991 
	C187.151932,522.905334 185.437180,515.184753 187.971817,507.608063 
	C190.064117,501.353668 195.102234,498.034149 202.682892,497.915314 
	C218.731812,497.663757 229.851837,506.899811 233.420090,523.882568 
	C237.541321,517.723877 241.449417,511.883636 245.318985,506.101013 
	C230.461227,493.993164 203.532700,491.328033 187.581863,500.020416 
	C168.949371,510.174133 168.118500,533.114563 186.416107,543.859131 
	C192.298828,547.313477 199.340088,548.871216 205.950211,550.987915 
	C211.941269,552.906311 218.066940,554.404419 224.786774,556.458008 
M422.971863,536.593323 
	C417.794098,535.389587 412.522430,534.486084 407.463318,532.903137 
	C401.655609,531.085938 395.608612,529.386780 390.446533,526.321228 
	C384.397034,522.728638 382.779572,514.824219 385.182831,507.562744 
	C387.172272,501.551697 392.215820,498.149872 399.454834,497.936584 
	C415.837921,497.453796 427.897217,507.327148 430.542450,524.062927 
	C434.776703,517.746643 438.689575,511.909790 442.567932,506.124390 
	C428.160004,494.314392 401.587952,491.392944 385.738739,499.489929 
	C376.590912,504.163361 370.802490,511.148376 370.675018,521.797974 
	C370.545837,532.589417 375.936493,540.333008 385.328278,544.894897 
	C390.941223,547.621216 397.170990,549.102417 403.164978,551.013000 
	C409.775421,553.120056 416.789856,554.335266 422.973785,557.302917 
	C429.607239,560.486206 431.761780,568.043640 430.086700,576.468872 
	C428.872986,582.573608 424.705994,586.626526 418.352539,587.881836 
	C400.467133,591.415588 383.126099,580.341309 379.022919,562.055298 
	C375.267731,568.293640 371.830444,574.003784 368.263641,579.929138 
	C380.399536,588.549927 393.448578,591.553772 407.423096,591.277222 
	C416.942749,591.088806 425.857849,588.898254 433.665253,583.086182 
	C447.140228,573.054932 449.812622,549.074158 429.666870,539.384583 
	C427.723267,538.449768 425.693939,537.693237 422.971863,536.593323 
M480.223022,593.006287 
	C487.689484,590.935303 495.155975,588.864319 502.622437,586.793396 
	C502.545135,586.547729 502.467834,586.302124 502.390503,586.056458 
	C495.120697,586.056458 487.850891,586.056458 480.403015,586.056458 
	C480.403015,557.590271 480.403015,529.375916 480.403015,500.784760 
	C486.681519,500.784760 492.658600,500.628479 498.622131,500.845490 
	C502.001770,500.968475 503.701416,500.013336 502.999878,495.874329 
	C495.528564,495.874329 487.961548,495.874329 480.715210,495.874329 
	C480.715210,484.820587 480.715210,474.307648 480.715210,463.492920 
	C469.249420,468.801300 457.755646,474.122681 446.261841,479.444031 
	C448.125916,479.999908 449.660004,479.640198 451.187286,479.253784 
	C461.004608,476.769775 462.217316,477.689056 462.194427,487.853363 
	C462.121674,520.164978 462.002075,552.476562 462.001160,584.788208 
	C462.001129,586.165039 462.698944,588.473145 463.590210,588.765259 
	C468.755341,590.458008 474.076080,591.675903 480.223022,593.006287 
M536.062988,561.492798 
	C536.062988,553.163513 535.551392,544.792297 536.228638,536.518433 
	C536.749023,530.160889 537.960327,523.590027 540.392761,517.750610 
	C542.110107,513.627808 545.801331,509.619293 549.651978,507.253204 
	C555.989136,503.359222 562.231079,507.753448 561.868347,515.226135 
	C561.734070,517.991699 560.922180,520.724365 560.419312,523.472107 
	C560.616821,523.553528 560.814270,523.634949 561.011719,523.716370 
	C566.348450,515.022400 571.685242,506.328339 577.054321,497.581573 
	C563.616333,491.355499 547.731262,497.601959 540.366882,511.523895 
	C539.577393,513.016296 538.472473,514.341858 537.513916,515.744812 
	C537.003723,515.530762 536.493530,515.316772 535.983337,515.102722 
	C536.302185,508.571075 536.621033,502.039398 536.964172,495.011200 
	C526.620239,496.012817 516.769775,496.966705 506.919342,497.920563 
	C508.328857,498.951904 509.719818,499.432617 511.148865,499.615234 
	C516.429077,500.289917 518.443909,502.684570 518.330261,508.495117 
	C517.903687,530.309509 518.158875,552.137268 518.158752,573.960022 
	C518.158691,579.205261 518.158691,584.450500 518.158691,589.807922 
	C526.012268,589.807922 534.085693,589.807922 543.101990,589.807922 
	C537.052734,585.190857 536.119934,579.246460 536.078369,572.983398 
	C536.055176,569.485229 536.066956,565.986816 536.062988,561.492798 
z"/>
<path fill="#3938FC" opacity="1.000000" stroke="none" 
	d="
M766.004395,572.892700 
	C766.001709,558.244568 766.095398,544.081848 765.934143,529.921997 
	C765.888916,525.956116 765.494629,521.901855 764.567017,518.055420 
	C761.624084,505.851654 752.068787,500.096466 740.359802,504.573975 
	C733.356628,507.251953 727.174805,512.142578 720.783936,516.285645 
	C719.847473,516.892761 719.408447,518.872375 719.403198,520.219543 
	C719.332581,538.212646 719.328552,556.206543 719.428467,574.199524 
	C719.460449,579.963928 720.519592,585.458557 726.299072,589.686035 
	C717.248474,589.686035 709.075073,589.686035 701.448669,589.686035 
	C701.448669,576.338257 701.448669,563.083740 701.448669,549.829163 
	C701.448669,536.167358 701.449036,522.505493 701.448608,508.843658 
	C701.448425,501.411011 701.448120,501.409790 694.245422,499.571686 
	C692.974609,499.247345 691.699890,498.938171 690.394653,497.928528 
	C700.060913,496.978027 709.727173,496.027496 719.731506,495.043762 
	C719.731506,500.701965 719.731506,506.094360 719.731506,512.421265 
	C721.953125,510.840302 723.732849,509.525116 725.560974,508.281067 
	C734.808044,501.988403 744.081299,495.691772 755.775330,495.039368 
	C768.761536,494.314880 776.411194,499.317474 781.213379,511.468018 
	C781.513855,512.228271 781.898865,512.955078 782.276001,513.764954 
	C787.876709,509.934967 793.228394,505.970306 798.877258,502.487671 
	C806.327576,497.894409 814.308899,494.711273 823.321960,494.935791 
	C833.972900,495.201111 841.760010,499.973602 844.958374,510.175568 
	C847.109253,517.036438 847.989990,524.479248 848.261475,531.705994 
	C848.767578,545.182373 848.372009,558.691223 848.440430,572.186096 
	C848.472839,578.568176 848.842285,584.902771 855.331970,589.684387 
	C846.290161,589.684387 838.120911,589.684387 830.523254,589.684387 
	C830.523254,570.812988 830.614624,552.050781 830.461975,533.290527 
	C830.421570,528.325684 830.162964,523.247131 829.080322,518.428467 
	C826.164062,505.448853 816.172302,499.827240 803.824402,504.960999 
	C796.882263,507.847260 790.775757,512.772888 784.390930,516.930481 
	C783.639587,517.419678 783.138367,518.870667 783.150085,519.868469 
	C783.361938,538.012451 783.689941,556.154968 783.946899,574.298523 
	C784.029724,580.145874 785.108887,585.538940 791.045105,589.699097 
	C781.883301,589.699097 773.704773,589.699097 765.055786,589.699097 
	C765.375000,584.207825 765.689636,578.793518 766.004395,572.892700 
z"/>
<path fill="#3B3AFC" opacity="1.000000" stroke="none" 
	d="
M676.219238,572.960510 
	C676.276428,580.192322 676.520691,586.865051 682.493958,592.051514 
	C674.804382,590.545776 667.153442,588.771240 659.407471,587.658081 
	C655.995422,587.167786 652.187012,587.365112 648.907837,588.379395 
	C634.814941,592.738159 620.962341,592.672302 607.541992,586.427551 
	C588.816467,577.714111 579.891846,556.666260 585.416992,534.362488 
	C590.951050,512.022766 606.519592,500.432068 628.184143,496.316956 
	C642.789185,493.542786 657.303711,494.303558 671.401794,499.825928 
	C675.018982,501.242828 676.380676,502.939453 676.333801,507.017059 
	C676.083191,528.831665 676.216919,550.650635 676.219238,572.960510 
M602.906799,535.534607 
	C602.938721,537.367310 602.863892,539.209106 603.019531,541.031250 
	C604.205872,554.916992 608.563538,567.478088 619.282349,576.952393 
	C627.873413,584.545959 637.884827,587.951843 649.325134,584.755249 
	C656.073486,582.869629 658.200684,579.902405 658.226990,572.987854 
	C658.303833,552.824463 658.343933,532.660217 658.188354,512.497925 
	C658.173950,510.631317 657.134155,508.282227 655.777039,506.991089 
	C639.463989,491.471313 613.029419,497.730835 605.742554,518.963806 
	C604.044556,523.911682 603.823547,529.366394 602.906799,535.534607 
z"/>
<path fill="#3A39FC" opacity="1.000000" stroke="none" 
	d="
M283.564209,502.582336 
	C304.058533,492.952301 324.558746,492.405518 345.433990,499.968201 
	C348.876465,501.215363 350.144470,502.986511 350.108368,506.804871 
	C349.898956,528.951355 350.047089,551.100952 349.982971,573.249268 
	C349.962799,580.215881 350.409729,586.918640 356.405884,592.113770 
	C348.487366,590.535156 340.604797,588.723022 332.632263,587.495422 
	C329.540771,587.019470 326.052460,587.260742 323.076202,588.211792 
	C308.673035,592.814392 294.511383,592.745361 280.808746,586.169312 
	C261.956757,577.122192 253.437866,555.429871 259.531464,532.837524 
	C263.142334,519.450073 271.064514,509.421295 283.564209,502.582336 
M309.524231,585.216064 
	C314.579590,584.872498 319.796112,585.188293 324.645569,584.002563 
	C329.633942,582.782898 332.276398,579.246948 332.180634,573.312927 
	C331.852936,553.014282 332.112610,532.706604 332.004730,512.403198 
	C331.996124,510.785950 331.316406,508.765564 330.225677,507.622162 
	C315.378723,492.058868 288.175293,497.136078 280.098907,517.025635 
	C275.422211,528.542847 275.518585,540.506042 278.678162,552.306213 
	C282.961273,568.302734 291.561371,580.690918 309.524231,585.216064 
z"/>
<path fill="#3C3BFC" opacity="1.000000" stroke="none" 
	d="
M224.460022,556.272949 
	C218.066940,554.404419 211.941269,552.906311 205.950211,550.987915 
	C199.340088,548.871216 192.298828,547.313477 186.416107,543.859131 
	C168.118500,533.114563 168.949371,510.174133 187.581863,500.020416 
	C203.532700,491.328033 230.461227,493.993164 245.318985,506.101013 
	C241.449417,511.883636 237.541321,517.723877 233.420090,523.882568 
	C229.851837,506.899811 218.731812,497.663757 202.682892,497.915314 
	C195.102234,498.034149 190.064117,501.353668 187.971817,507.608063 
	C185.437180,515.184753 187.151932,522.905334 193.614868,526.627991 
	C198.817581,529.624695 204.918442,531.136963 210.719345,533.001221 
	C217.969803,535.331360 225.710373,536.502930 232.555603,539.658142 
	C252.616714,548.905029 249.919525,572.762085 236.644791,582.901733 
	C228.457993,589.155151 219.008774,591.194702 208.972473,591.325500 
	C194.459717,591.514648 179.971039,587.101318 171.210083,579.650635 
	C174.549194,574.080750 177.929062,568.442871 181.677277,562.190491 
	C182.625809,565.521973 183.105591,568.394287 184.237320,570.981384 
	C189.865982,583.848389 211.625031,592.291870 224.654816,586.800110 
	C234.471756,582.662476 236.593735,566.997498 228.363693,559.156799 
	C227.289398,558.133362 225.984726,557.351685 224.460022,556.272949 
z"/>
<path fill="#3B3AFC" opacity="1.000000" stroke="none" 
	d="
M423.338135,536.723633 
	C425.693939,537.693237 427.723267,538.449768 429.666870,539.384583 
	C449.812622,549.074158 447.140228,573.054932 433.665253,583.086182 
	C425.857849,588.898254 416.942749,591.088806 407.423096,591.277222 
	C393.448578,591.553772 380.399536,588.549927 368.263641,579.929138 
	C371.830444,574.003784 375.267731,568.293640 379.022919,562.055298 
	C383.126099,580.341309 400.467133,591.415588 418.352539,587.881836 
	C424.705994,586.626526 428.872986,582.573608 430.086700,576.468872 
	C431.761780,568.043640 429.607239,560.486206 422.973785,557.302917 
	C416.789856,554.335266 409.775421,553.120056 403.164978,551.013000 
	C397.170990,549.102417 390.941223,547.621216 385.328278,544.894897 
	C375.936493,540.333008 370.545837,532.589417 370.675018,521.797974 
	C370.802490,511.148376 376.590912,504.163361 385.738739,499.489929 
	C401.587952,491.392944 428.160004,494.314392 442.567932,506.124390 
	C438.689575,511.909790 434.776703,517.746643 430.542450,524.062927 
	C427.897217,507.327148 415.837921,497.453796 399.454834,497.936584 
	C392.215820,498.149872 387.172272,501.551697 385.182831,507.562744 
	C382.779572,514.824219 384.397034,522.728638 390.446533,526.321228 
	C395.608612,529.386780 401.655609,531.085938 407.463318,532.903137 
	C412.522430,534.486084 417.794098,535.389587 423.338135,536.723633 
z"/>
<path fill="#3B3AFC" opacity="1.000000" stroke="none" 
	d="
M479.783630,593.030396 
	C474.076080,591.675903 468.755341,590.458008 463.590210,588.765259 
	C462.698944,588.473145 462.001129,586.165039 462.001160,584.788208 
	C462.002075,552.476562 462.121674,520.164978 462.194427,487.853363 
	C462.217316,477.689056 461.004608,476.769775 451.187286,479.253784 
	C449.660004,479.640198 448.125916,479.999908 446.261841,479.444031 
	C457.755646,474.122681 469.249420,468.801300 480.715210,463.492920 
	C480.715210,474.307648 480.715210,484.820587 480.715210,495.874329 
	C487.961548,495.874329 495.528564,495.874329 502.999878,495.874329 
	C503.701416,500.013336 502.001770,500.968475 498.622131,500.845490 
	C492.658600,500.628479 486.681519,500.784760 480.403015,500.784760 
	C480.403015,529.375916 480.403015,557.590271 480.403015,586.056458 
	C487.850891,586.056458 495.120697,586.056458 502.390503,586.056458 
	C502.467834,586.302124 502.545135,586.547729 502.622437,586.793396 
	C495.155975,588.864319 487.689484,590.935303 479.783630,593.030396 
z"/>
<path fill="#3B3AFC" opacity="1.000000" stroke="none" 
	d="
M536.062988,561.990662 
	C536.066956,565.986816 536.055176,569.485229 536.078369,572.983398 
	C536.119934,579.246460 537.052734,585.190857 543.101990,589.807922 
	C534.085693,589.807922 526.012268,589.807922 518.158691,589.807922 
	C518.158691,584.450500 518.158691,579.205261 518.158752,573.960022 
	C518.158875,552.137268 517.903687,530.309509 518.330261,508.495117 
	C518.443909,502.684570 516.429077,500.289917 511.148865,499.615234 
	C509.719818,499.432617 508.328857,498.951904 506.919342,497.920563 
	C516.769775,496.966705 526.620239,496.012817 536.964172,495.011200 
	C536.621033,502.039398 536.302185,508.571075 535.983337,515.102722 
	C536.493530,515.316772 537.003723,515.530762 537.513916,515.744812 
	C538.472473,514.341858 539.577393,513.016296 540.366882,511.523895 
	C547.731262,497.601959 563.616333,491.355499 577.054321,497.581573 
	C571.685242,506.328339 566.348450,515.022400 561.011719,523.716370 
	C560.814270,523.634949 560.616821,523.553528 560.419312,523.472107 
	C560.922180,520.724365 561.734070,517.991699 561.868347,515.226135 
	C562.231079,507.753448 555.989136,503.359222 549.651978,507.253204 
	C545.801331,509.619293 542.110107,513.627808 540.392761,517.750610 
	C537.960327,523.590027 536.749023,530.160889 536.228638,536.518433 
	C535.551392,544.792297 536.062988,553.163513 536.062988,561.990662 
z"/>
<path fill="#FEFEFF" opacity="1.000000" stroke="none" 
	d="
M602.914856,535.061279 
	C603.823547,529.366394 604.044556,523.911682 605.742554,518.963806 
	C613.029419,497.730835 639.463989,491.471313 655.777039,506.991089 
	C657.134155,508.282227 658.173950,510.631317 658.188354,512.497925 
	C658.343933,532.660217 658.303833,552.824463 658.226990,572.987854 
	C658.200684,579.902405 656.073486,582.869629 649.325134,584.755249 
	C637.884827,587.951843 627.873413,584.545959 619.282349,576.952393 
	C608.563538,567.478088 604.205872,554.916992 603.019531,541.031250 
	C602.863892,539.209106 602.938721,537.367310 602.914856,535.061279 
z"/>
<path fill="#FEFEFF" opacity="1.000000" stroke="none" 
	d="
M309.110596,585.149353 
	C291.561371,580.690918 282.961273,568.302734 278.678162,552.306213 
	C275.518585,540.506042 275.422211,528.542847 280.098907,517.025635 
	C288.175293,497.136078 315.378723,492.058868 330.225677,507.622162 
	C331.316406,508.765564 331.996124,510.785950 332.004730,512.403198 
	C332.112610,532.706604 331.852936,553.014282 332.180634,573.312927 
	C332.276398,579.246948 329.633942,582.782898 324.645569,584.002563 
	C319.796112,585.188293 314.579590,584.872498 309.110596,585.149353 
z"/>
</svg>