<?xml version="1.0" encoding="UTF-8"?>
<svg version="1.1" xmlns="http://www.w3.org/2000/svg" width="416" height="312">
<path d="M0 0 C0.97550686 0.09594452 1.95101372 0.19188904 2.95608139 0.29074097 C10.11069791 1.31656394 13.85288245 4.01062899 18.79736328 9.14257812 C20.16574513 10.4694193 21.53452707 11.79584795 22.90367126 13.12190247 C24.37458494 14.58695718 25.84284167 16.05468289 27.30883789 17.5246582 C28.11794617 18.33201416 28.92705444 19.13937012 29.76068115 19.97119141 C32.40952835 22.61567003 35.05473996 25.26375033 37.69970703 27.91210938 C39.54661189 29.75834016 41.39366514 31.60442251 43.24085999 33.45036316 C47.09816199 37.30585375 50.95336786 41.16343085 54.80737305 45.0222168 C59.26357991 49.48388751 63.72340898 53.94191324 68.18509096 58.3981083 C72.48662736 62.69456669 76.78535574 66.99382298 81.08288765 71.29428673 C82.90947558 73.12154303 84.73681019 74.94805323 86.56489372 76.77381325 C89.10956758 79.31596006 91.65103523 81.86126853 94.19165039 84.4074707 C94.95159805 85.16539413 95.71154572 85.92331757 96.49452209 86.70420837 C97.18271027 87.39521637 97.87089844 88.08622437 98.5799408 88.798172 C99.4810781 89.69987484 99.4810781 89.69987484 100.40042019 90.61979389 C102.91794089 93.36410098 102.94550583 95.39286558 103.02197266 99.01611328 C103.05575012 100.53877304 103.05575012 100.53877304 103.09020996 102.0921936 C103.1612343 106.75165418 103.21876683 111.41095347 103.25732422 116.07080078 C103.28390273 118.52477566 103.32479572 120.97863945 103.38037109 123.43212891 C103.4596652 126.97409132 103.49266505 130.51391958 103.51611328 134.05664062 C103.54910522 135.14651276 103.58209717 136.23638489 103.61608887 137.35928345 C103.61338989 138.39330292 103.61069092 139.42732239 103.60791016 140.49267578 C103.62043823 141.39265289 103.63296631 142.29263 103.64587402 143.21987915 C102.2982244 147.8618642 99.1148916 150.72598186 95.79736328 154.14257812 C95.14963392 154.81545113 94.50190456 155.48832413 93.83454704 156.18158722 C91.71236302 158.35722374 89.5672654 160.50789575 87.4152832 162.65405273 C86.20424927 163.86771515 86.20424927 163.86771515 84.96875 165.105896 C82.32427137 167.7547432 79.67619107 170.39995481 77.02783203 173.04492188 C75.18160125 174.89182674 73.3355189 176.73887998 71.48957825 178.58607483 C67.63408765 182.44337683 63.77651056 186.2985827 59.91772461 190.15258789 C55.45605389 194.60879475 50.99802817 199.06862382 46.5418331 203.5303058 C42.24537471 207.8318422 37.94611843 212.13057058 33.64565468 216.42810249 C31.81839838 218.25469042 29.99188817 220.08202503 28.16612816 221.91010857 C25.62398135 224.45478242 23.07867288 226.99625008 20.5324707 229.53686523 C19.77454727 230.2968129 19.01662384 231.05676056 18.23573303 231.83973694 C17.19922104 232.8720192 17.19922104 232.8720192 16.14176941 233.92515564 C15.24006657 234.82629294 15.24006657 234.82629294 14.32014751 235.74563503 C6.38451466 243.0254763 -13.70109526 241.21100565 -23.68689346 241.03577232 C-51.35561957 239.55391356 -68.78658531 219.07979229 -86.49327993 199.98756194 C-89.94976674 196.28123483 -93.51271087 192.70945954 -97.15917969 189.19042969 C-135.40600896 152.24488299 -135.40600896 152.24488299 -136.47271729 129.36813354 C-136.5020607 121.83278234 -135.75382921 114.50411524 -134.48707581 107.08596039 C-134.09203148 104.38688643 -134.06440037 101.69948345 -134.00244141 98.97509766 C-133.65320628 95.08907415 -132.79395483 93.2158749 -130.13168335 90.37924194 C-129.17790424 89.34266103 -129.17790424 89.34266103 -128.20485687 88.28513908 C-127.54412422 87.57809397 -126.88339157 86.87104885 -126.20263672 86.14257812 C-124.97457099 84.76189667 -123.74989523 83.37819292 -122.52853394 81.99157715 C-113.67586515 72.06012347 -104.67400856 62.28020976 -95.51704216 52.62880707 C-90.83226385 47.68405436 -86.20906451 42.70224196 -81.70507812 37.59179688 C-56.92525042 9.54647799 -38.43393966 -3.88730005 0 0 Z M-17.69595337 87.39538574 C-18.2777536 87.9816272 -18.85955383 88.56786865 -19.45898438 89.171875 C-20.11951813 89.83255981 -20.78005188 90.49324463 -21.46060181 91.1739502 C-22.17211395 91.89578491 -22.8836261 92.61761963 -23.61669922 93.36132812 C-24.34633881 94.09379761 -25.07597839 94.82626709 -25.82772827 95.58093262 C-28.16574712 97.93018037 -30.49673133 100.2862743 -32.82763672 102.64257812 C-34.40790866 104.23287635 -35.988632 105.82272615 -37.56982422 107.41210938 C-41.45268864 111.31707009 -45.32979381 115.22767952 -49.20263672 119.14257812 C-47.87269289 122.09522924 -46.42484355 124.16608029 -44.12988281 126.44238281 C-43.50939056 127.062724 -42.88889832 127.68306519 -42.24960327 128.32220459 C-41.24795639 129.30836761 -41.24795639 129.30836761 -40.22607422 130.31445312 C-39.54082672 130.99687073 -38.85557922 131.67928833 -38.14956665 132.38238525 C-35.96357826 134.55719411 -33.77073243 136.72493885 -31.57763672 138.89257812 C-30.09280417 140.36737802 -28.60842366 141.84263318 -27.12451172 143.31835938 C-23.48910762 146.93173261 -19.84753848 150.53878666 -16.20263672 154.14257812 C-13.27275066 152.81802817 -11.18223018 151.37744715 -8.90283203 149.11743164 C-8.28249084 148.50662247 -7.66214966 147.89581329 -7.02301025 147.26649475 C-6.36556824 146.60814133 -5.70812622 145.9497879 -5.03076172 145.27148438 C-4.34834412 144.5933519 -3.66592651 143.91521942 -2.96282959 143.21653748 C-1.52475641 141.78419904 -0.08928576 140.34924353 1.34375 138.91186523 C3.54447895 136.70796661 5.75821739 134.5177429 7.97314453 132.328125 C9.36848583 130.93505569 10.76304452 129.54120196 12.15673828 128.14648438 C12.82227722 127.49015518 13.48781616 126.83382599 14.17352295 126.15760803 C14.78125549 125.5436467 15.38898804 124.92968536 16.01513672 124.29711914 C16.82310699 123.490093 16.82310699 123.490093 17.6473999 122.66676331 C19.09850582 121.06165992 19.09850582 121.06165992 18.79736328 118.14257812 C17.46808332 116.67548781 17.46808332 116.67548781 15.60205078 115.26367188 C11.73011328 112.0205616 8.15940968 108.58324089 4.61767578 104.99023438 C4.07471863 104.44152679 3.53176147 103.89281921 2.97235107 103.32748413 C0.70722996 101.03561941 -1.55341474 98.73942107 -3.81005859 96.43920898 C-5.47567802 94.74357627 -7.14731259 93.05406512 -8.81982422 91.36523438 C-9.33124969 90.84034927 -9.84267517 90.31546417 -10.36959839 89.77467346 C-11.60981501 88.52562654 -12.90197566 87.32855296 -14.20263672 86.14257812 C-16.27214157 85.92833905 -16.27214157 85.92833905 -17.69595337 87.39538574 Z " fill="#1E90B0" transform="translate(218.20263671875,50.857421875)"/>
<path d="M0 0 C2.09507323 1.691563 2.92654612 2.58919964 3.40786743 5.28105164 C3.42954483 6.62052605 3.42954483 6.62052605 3.45166016 7.98706055 C3.4740274 9.00209152 3.49639465 10.0171225 3.5194397 11.06291199 C3.52591522 12.15976822 3.53239075 13.25662445 3.5390625 14.38671875 C3.55141937 15.51769485 3.56377625 16.64867096 3.57650757 17.81391907 C3.59609448 20.21044736 3.60730952 22.60705637 3.61083984 25.00366211 C3.62488207 28.65681983 3.69214797 32.30651846 3.76171875 35.95898438 C3.77412267 38.28904731 3.78333942 40.61912983 3.7890625 42.94921875 C3.81578033 44.03595383 3.84249817 45.1226889 3.87002563 46.24235535 C3.86087128 47.27314713 3.85171692 48.3039389 3.84228516 49.3659668 C3.84878082 50.2629277 3.85527649 51.15988861 3.86196899 52.08403015 C2.4933525 56.7139466 -0.68578131 59.58572724 -4 63 C-4.64957294 63.67383571 -5.29914589 64.34767141 -5.96840286 65.04192638 C-8.0992561 67.22196846 -10.25306898 69.37693933 -12.41381836 71.52734375 C-13.2243869 72.33805832 -14.03495544 73.14877289 -14.87008667 73.98405457 C-17.52430646 76.63758302 -20.18204039 79.28756133 -22.83984375 81.9375 C-24.69093836 83.78672766 -26.54181092 85.63617763 -28.39247131 87.48583984 C-32.74993542 91.84021024 -37.10993965 96.1920278 -41.47088867 100.54290771 C-46.44030278 105.50109944 -51.4068383 110.46217039 -56.37314785 115.42347145 C-66.57892453 125.61882819 -76.78826679 135.8106094 -87 146 C-89.84223197 144.63760782 -91.96027641 143.44766831 -94 141 C-94 140.34 -94 139.68 -94 139 C-94.57878906 138.74734375 -95.15757812 138.4946875 -95.75390625 138.234375 C-98.2669215 136.85330923 -99.93423218 135.29690336 -101.9375 133.25 C-102.63230469 132.54101562 -103.32710938 131.83203125 -104.04296875 131.1015625 C-105.69741207 129.32493474 -107.23980845 127.52325934 -108.75 125.625 C-110.71243421 122.97926676 -110.71243421 122.97926676 -112.92578125 122.07421875 C-115.39686014 120.7944698 -116.66815387 119.3246086 -118.4375 117.1875 C-121.14109989 113.94443471 -124.00411071 110.97592176 -127 108 C-144 91 -161 74 -178 57 C-174.35767102 52.65913471 -170.62361806 48.50230266 -166.6015625 44.50390625 C-166.1217392 44.02549789 -165.64191589 43.54708954 -165.14755249 43.05418396 C-163.64240542 41.55455121 -162.13378786 40.05846872 -160.625 38.5625 C-159.59221405 37.53474017 -158.55966009 36.50674715 -157.52734375 35.47851562 C-155.02089713 32.98298402 -152.5113292 30.49061918 -150 28 C-138.66666667 39.33333333 -127.33333333 50.66666667 -116 62 C-112.58940597 60.39464713 -110.38207516 58.59481099 -107.75 55.875 C-107.04359375 55.15054688 -106.3371875 54.42609375 -105.609375 53.6796875 C-105.07828125 53.12539062 -104.5471875 52.57109375 -104 52 C-104 55.37075543 -104.70458685 56.71273253 -106.3125 59.625 C-106.74175781 60.42164063 -107.17101562 61.21828125 -107.61328125 62.0390625 C-109 64 -109 64 -112 65 C-111.4946875 65.55429688 -110.989375 66.10859375 -110.46875 66.6796875 C-109.8190625 67.40414062 -109.169375 68.12859375 -108.5 68.875 C-107.8503125 69.59429687 -107.200625 70.31359375 -106.53125 71.0546875 C-105 73 -105 73 -105 75 C-103.02 75.495 -103.02 75.495 -101 76 C-101 76.66 -101 77.32 -101 78 C-100.34 78 -99.68 78 -99 78 C-97.375 79.375 -97.375 79.375 -96 81 C-96 81.66 -96 82.32 -96 83 C-95.34 83 -94.68 83 -94 83 C-92.36502637 84.74160234 -90.92214608 86.59809594 -89.4375 88.46875 C-88.963125 88.9740625 -88.48875 89.479375 -88 90 C-85.84753433 90.23486397 -85.84753433 90.23486397 -84.34375 88.35546875 C-83.7353125 87.64003906 -83.126875 86.92460937 -82.5 86.1875 C-81.8915625 85.47980469 -81.283125 84.77210938 -80.65625 84.04296875 C-78.86470856 81.89791928 -78.86470856 81.89791928 -77 79 C-76.34 79 -75.68 79 -75 79 C-74.505 77.515 -74.505 77.515 -74 76 C-73.195625 75.690625 -72.39125 75.38125 -71.5625 75.0625 C-68.42080893 73.7598476 -68.43666752 72.94838485 -67 70 C-65.44921875 68.25390625 -65.44921875 68.25390625 -63.6875 66.5625 C-63.06617188 65.95792969 -62.44484375 65.35335937 -61.8046875 64.73046875 C-61.20914063 64.15941406 -60.61359375 63.58835938 -60 63 C-57.45041015 60.50970293 -55.12814849 58.17219953 -53 55.3125 C-50.76967493 52.73368664 -49.10609261 52.22608919 -46 51 C-45.32210571 49.67233982 -44.65695232 48.33814643 -44 47 C-42.44921875 45.25390625 -42.44921875 45.25390625 -40.6875 43.5625 C-40.06488281 42.95792969 -39.44226563 42.35335937 -38.80078125 41.73046875 C-38.20652344 41.15941406 -37.61226562 40.58835938 -37 40 C-36.13375 39.13375 -35.2675 38.2675 -34.375 37.375 C-33.199375 36.199375 -33.199375 36.199375 -32 35 C-31.13375 34.0925 -30.2675 33.185 -29.375 32.25 C-27 30 -27 30 -24 29 C-24 28.34 -24 27.68 -24 27 C-22.54882812 25.5612793 -22.54882812 25.5612793 -20.53125 23.88671875 C-16.00566468 20.03458363 -11.73070287 15.98444311 -7.5 11.8125 C-6.77296875 11.11447266 -6.0459375 10.41644531 -5.296875 9.69726562 C-4.61109375 9.01986328 -3.9253125 8.34246094 -3.21875 7.64453125 C-2.59935547 7.03971924 -1.97996094 6.43490723 -1.34179688 5.81176758 C0.39677002 3.84001496 0.39677002 3.84001496 0 0 Z " fill="#127690" transform="translate(318,142)"/>
<path d="M0 0 C20.73229393 -3.47259539 45.47088765 -7.05015671 63.58720589 5.70274162 C75.78561279 15.32263229 86.29964702 26.87033288 96.58113945 38.46553528 C101.31888467 43.7947195 106.23346361 48.94788358 111.16016161 54.1017822 C118.80472457 62.11265537 126.36218584 70.20367142 133.75708008 78.44604492 C134.8447039 79.63935173 134.8447039 79.63935173 135.95429993 80.85676575 C136.60966736 81.59567047 137.26503479 82.3345752 137.94026184 83.09587097 C138.51077176 83.73282992 139.08128168 84.36978888 139.66907978 85.02604961 C141.25578542 87.37936738 141.74356969 89.1831111 142 92 C140.54052734 94.140625 140.54052734 94.140625 138.3359375 96.25 C137.54316406 97.0234375 136.75039063 97.796875 135.93359375 98.59375 C135.08925781 99.3878125 134.24492187 100.181875 133.375 101 C132.55386719 101.7940625 131.73273438 102.588125 130.88671875 103.40625 C129.30101016 104.9383356 127.70848661 106.46340716 126.10839844 107.98046875 C124.37554462 109.64028427 122.69885387 111.33075589 121.0390625 113.0625 C119 115 119 115 117 115 C117 115.66 117 116.32 117 117 C113.92664429 120.3367862 110.66553339 123.32515131 107 126 C106.34 126 105.68 126 105 126 C104.73960937 126.5878125 104.47921875 127.175625 104.2109375 127.78125 C102.92530517 130.13686021 101.55445256 131.64637745 99.625 133.5 C99.00109375 134.10585937 98.3771875 134.71171875 97.734375 135.3359375 C97.16203125 135.88507813 96.5896875 136.43421875 96 137 C95.29875 137.70125 94.5975 138.4025 93.875 139.125 C73 160 73 160 70.82421875 162.16796875 C69.65464183 163.34255456 68.50290019 164.53533826 67.375 165.75 C66 167 66 167 64 167 C63.74476563 167.57234375 63.48953125 168.1446875 63.2265625 168.734375 C61.86912841 171.24173733 60.28025896 173.1330456 58.375 175.25 C57.74335938 175.95640625 57.11171875 176.6628125 56.4609375 177.390625 C55.73777344 178.18726563 55.73777344 178.18726563 55 179 C51.67697814 177.43622501 49.43815993 175.78646849 47 173 C47 172.34 47 171.68 47 171 C46.34 171 45.68 171 45 171 C45 170.34 45 169.68 45 169 C44.01 168.67 43.02 168.34 42 168 C42 167.34 42 166.68 42 166 C40.68 165.67 39.36 165.34 38 165 C38 164.34 38 163.68 38 163 C37.34 163 36.68 163 36 163 C34.2734375 161.3203125 34.2734375 161.3203125 32.375 159.125 C31.74335938 158.40570313 31.11171875 157.68640625 30.4609375 156.9453125 C29 155 29 155 29 153 C30.485 152.01 30.485 152.01 32 151 C33.07693305 149.25468714 33.07693305 149.25468714 33.9375 147.25 C37.59508084 139.20648889 43.01103165 133.71014293 49.25 127.5625 C50.07113281 126.74201172 50.89226562 125.92152344 51.73828125 125.07617188 C55.38762946 121.45284913 59.05430938 117.90033606 62.9609375 114.5546875 C69.03092924 109.3339168 74.51487116 103.49014261 80.10546875 97.76757812 C80.96527344 96.89681641 81.82507813 96.02605469 82.7109375 95.12890625 C83.48743652 94.33556885 84.26393555 93.54223145 85.06396484 92.72485352 C87 91 87 91 89 91 C88.566875 90.51789063 88.13375 90.03578125 87.6875 89.5390625 C87.130625 88.90742188 86.57375 88.27578125 86 87.625 C85.443125 86.99851562 84.88625 86.37203125 84.3125 85.7265625 C83 84 83 84 83 82 C82.34 82 81.68 82 81 82 C81 81.34 81 80.68 81 80 C80.360625 79.731875 79.72125 79.46375 79.0625 79.1875 C77 78 77 78 76 75 C74.515 74.505 74.515 74.505 73 74 C73 73.34 73 72.68 73 72 C72.13375 71.62875 72.13375 71.62875 71.25 71.25 C68.67060021 69.81700012 66.93878408 68.21575324 65 66 C65 65.34 65 64.68 65 64 C64.46375 63.773125 63.9275 63.54625 63.375 63.3125 C58.65131126 60.70204044 55.14597772 57.26241935 51.6875 53.1875 C49.12073271 50.16643762 46.4345908 47.53229673 43.4375 44.9375 C40.12981208 42.07345783 37.22442455 39.1464293 34.484375 35.73828125 C32.4510535 33.35715475 30.22840597 31.19908484 28 29 C17 18 17 18 14.55078125 15.546875 C12.66767716 13.66665468 10.77960493 11.79219237 8.88671875 9.921875 C7.82029013 8.86460589 6.7538841 7.80731401 5.6875 6.75 C5.13771484 6.20859375 4.58792969 5.6671875 4.02148438 5.109375 C2.6620467 3.75838103 1.32847876 2.3814484 0 1 C0 0.67 0 0.34 0 0 Z " fill="#44BDD5" transform="translate(177,54)"/>
<path d="M0 0 C0.94875 0.350625 1.8975 0.70125 2.875 1.0625 C2.875 1.7225 2.875 2.3825 2.875 3.0625 C3.596875 3.26875 4.31875 3.475 5.0625 3.6875 C8.74370218 5.48719884 10.49705027 7.75979204 12.875 11.0625 C13.6875 13.4375 13.6875 13.4375 13.875 15.0625 C14.865 15.0625 15.855 15.0625 16.875 15.0625 C16.875 15.7225 16.875 16.3825 16.875 17.0625 C17.473125 17.330625 18.07125 17.59875 18.6875 17.875 C20.87347854 19.06167406 22.28832594 20.15849113 23.875 22.0625 C23.875 22.7225 23.875 23.3825 23.875 24.0625 C24.865 24.3925 25.855 24.7225 26.875 25.0625 C26.875 26.0525 26.875 27.0425 26.875 28.0625 C28.98254422 27.47022295 31.08595876 26.86323662 33.1875 26.25 C34.35925781 25.91355469 35.53101563 25.57710937 36.73828125 25.23046875 C39.69878798 24.12811319 40.89332505 23.40215495 42.875 21.0625 C44.20020503 20.37981862 45.53312182 19.7117959 46.875 19.0625 C47.535 18.4025 48.195 17.7425 48.875 17.0625 C49.865 17.0625 50.855 17.0625 51.875 17.0625 C52.24625 15.6084375 52.24625 15.6084375 52.625 14.125 C53.875 11.0625 53.875 11.0625 55.875 10.125 C57.875 10.0625 57.875 10.0625 59.875 11.0625 C51.295 19.6425 42.715 28.2225 33.875 37.0625 C33.545 36.0725 33.215 35.0825 32.875 34.0625 C31.56283003 33.35508769 30.22633943 32.69186792 28.875 32.0625 C27.29302979 30.72103882 27.29302979 30.72103882 25.75878906 29.17333984 C25.17848938 28.5928891 24.5981897 28.01243835 24.00030518 27.41439819 C23.07976349 26.47837265 23.07976349 26.47837265 22.140625 25.5234375 C21.50259949 24.88258209 20.86457397 24.24172668 20.20721436 23.58145142 C18.17505931 21.53812179 16.14997782 19.48794018 14.125 17.4375 C12.7465547 16.0490214 11.36765364 14.6609951 9.98828125 13.2734375 C6.61188106 9.87501303 3.24180712 6.47042746 -0.125 3.0625 C-4.03351199 4.64681453 -6.64867356 7.32885095 -9.546875 10.2890625 C-10.30414886 11.05058121 -10.30414886 11.05058121 -11.07672119 11.82748413 C-12.68092096 13.44283842 -14.27800856 15.06502209 -15.875 16.6875 C-16.96438107 17.78691698 -18.0542199 18.88588059 -19.14453125 19.984375 C-21.81001885 22.6718602 -24.46915143 25.36549021 -27.125 28.0625 C-27.125 25.0625 -27.125 25.0625 -26.125 22.0625 C-25.135 22.0625 -24.145 22.0625 -23.125 22.0625 C-23.125 21.0725 -23.125 20.0825 -23.125 19.0625 C-22.485625 18.77375 -21.84625 18.485 -21.1875 18.1875 C-18.97293921 17.23426549 -18.97293921 17.23426549 -18.125 15.0625 C-17.465 15.0625 -16.805 15.0625 -16.125 15.0625 C-16.0425 14.44375 -15.96 13.825 -15.875 13.1875 C-14.88874561 10.39311257 -13.69109601 10.345548 -11.125 9.0625 C-10.31971111 7.01249129 -10.31971111 7.01249129 -10.125 5.0625 C-8.805 4.7325 -7.485 4.4025 -6.125 4.0625 C-6.00125 3.423125 -5.8775 2.78375 -5.75 2.125 C-5.440625 1.1040625 -5.440625 1.1040625 -5.125 0.0625 C-3.125 -0.9375 -3.125 -0.9375 0 0 Z " fill="#1D6274" transform="translate(204.125,134.9375)"/>
<path d="M0 0 C1 2 1 2 0.4375 4.3125 C-1.09973795 7.1864666 -2.87427658 8.76850378 -5.42578125 10.7578125 C-9.05035196 13.61789559 -12.0508606 17.03406536 -15 20.5625 C-17.42261607 23.44091754 -20.02549878 25.68649905 -23 28 C-23.66 28.99 -24.32 29.98 -25 31 C-25.66 31 -26.32 31 -27 31 C-27 31.66 -27 32.32 -27 33 C-30.94020974 37.23772097 -35.31004889 41.04650426 -39.62695312 44.89453125 C-42.02939321 47.06743885 -44.15126546 49.1955113 -46.13671875 51.76171875 C-48.67925016 54.8159546 -51.1952049 55.1951395 -55 56 C-49.62806094 49.47121267 -43.68214926 43.55420138 -37.6953125 37.59765625 C-36.60507635 36.50928861 -35.51506331 35.42069743 -34.42526245 34.33189392 C-31.57688206 31.48730465 -28.72550996 28.64573319 -25.87347412 25.80480957 C-22.95548 22.89710335 -20.04036696 19.98651176 -17.125 17.07617188 C-11.41946016 11.38130919 -5.71075206 5.68963588 0 0 Z " fill="#1D7189" transform="translate(167,62)"/>
<path d="M0 0 C1 2 1 2 0.0625 5.1875 C-2.41622747 10.67039948 -7.44730203 14.56310472 -12.6027832 17.46508789 C-16.28447207 21.35825171 -15.62659923 25.06924441 -15.48828125 30.234375 C-15.48120651 31.22753723 -15.47413177 32.22069946 -15.46684265 33.24395752 C-15.43887288 36.41340733 -15.37612801 39.58108497 -15.3125 42.75 C-15.28742054 44.89971406 -15.26460676 47.04945582 -15.24414062 49.19921875 C-15.18903822 54.4667496 -15.10538665 59.7332482 -15 65 C-14.34 65 -13.68 65 -13 65 C-13 65.99 -13 66.98 -13 68 C-13.66 68 -14.32 68 -15 68 C-15 69.98 -15 71.96 -15 74 C-15.99 73.34 -16.98 72.68 -18 72 C-18.35109024 68.9390515 -18.51342189 66.07241582 -18.546875 63.00390625 C-18.56719788 62.10059067 -18.58752075 61.19727509 -18.60845947 60.2665863 C-18.64874291 58.34753503 -18.6818816 56.42832271 -18.70849609 54.5090332 C-18.74940015 51.60508606 -18.81211467 48.70228284 -18.87890625 45.79882812 C-19.40554337 20.21840357 -19.40554337 20.21840357 -15.125 15 C-13.77208605 13.6442616 -12.39359188 12.31388905 -11 11 C-10.02656327 10.0241981 -9.0567397 9.04478338 -8.08984375 8.0625 C-5.41586936 5.35144696 -2.71456485 2.67038568 0 0 Z " fill="#1B5E74" transform="translate(103,126)"/>
<path d="M0 0 C0.66 0.99 1.32 1.98 2 3 C-2.75 7 -2.75 7 -5 7 C-4.505 8.485 -4.505 8.485 -4 10 C-5.2065625 10.8971875 -5.2065625 10.8971875 -6.4375 11.8125 C-9.22327984 13.80947276 -9.22327984 13.80947276 -10 17 C-10.825 17.28875 -11.65 17.5775 -12.5 17.875 C-13.325 18.24625 -14.15 18.6175 -15 19 C-15.165 19.825 -15.33 20.65 -15.5 21.5 C-15.665 22.325 -15.83 23.15 -16 24 C-17.6476038 24.71247732 -19.31763529 25.37400383 -21 26 C-23.03490091 28.2299003 -23.03490091 28.2299003 -25 31 C-25.9862811 32.24020171 -26.98708429 33.46895478 -28 34.6875 C-28.7115625 35.55955078 -28.7115625 35.55955078 -29.4375 36.44921875 C-31.15990911 38.15870979 -32.82617643 38.95763378 -35 40 C-36.02028865 41.31787285 -37.01971384 42.65210653 -38 44 C-39.30144802 45.04115841 -40.62797869 46.05377841 -42 47 C-40.95673461 38.13224416 -33.77071947 32.49508875 -27.75 26.5625 C-26.92886719 25.74201172 -26.10773438 24.92152344 -25.26171875 24.07617188 C-20.89703841 19.74261841 -16.44772823 15.57709936 -11.78613281 11.56567383 C-9.24146785 9.33509203 -6.8763492 6.97185405 -4.5 4.5625 C-3.6440625 3.69753906 -2.788125 2.83257812 -1.90625 1.94140625 C-1.2771875 1.30074219 -0.648125 0.66007813 0 0 Z " fill="#3596B1" transform="translate(254,155)"/>
<path d="M0 0 C8.66666667 8.66666667 17.33333333 17.33333333 26 26 C25.01 26.495 25.01 26.495 24 27 C20.7899917 25.80436938 19.00634996 24.13350048 16.875 21.5 C15.29700469 19.5704306 13.76541706 17.76541706 12 16 C11.38125 15.154375 10.7625 14.30875 10.125 13.4375 C7.97600118 10.97247195 7.16524451 10.33913334 4 10 C4 9.34 4 8.68 4 8 C3.29875 8.61875 2.5975 9.2375 1.875 9.875 C-1.07064037 12.05221245 -3.53511677 12.92203633 -7 14 C-7.66 14.66 -8.32 15.32 -9 16 C-10.32796291 16.35412344 -11.66216607 16.68521554 -13 17 C-14.3479743 17.63654342 -15.68596724 18.29605388 -17 19 C-15.60652624 15.84795019 -13.97514921 13.73828227 -11.5234375 11.328125 C-10.51796875 10.33232422 -10.51796875 10.33232422 -9.4921875 9.31640625 C-8.79351562 8.63449219 -8.09484375 7.95257813 -7.375 7.25 C-6.66859375 6.55261719 -5.9621875 5.85523438 -5.234375 5.13671875 C-3.49401297 3.41987512 -1.74915019 1.70788168 0 0 Z " fill="#0B5D72" transform="translate(168,170)"/>
<path d="M0 0 C1.2065625 0.0309375 1.2065625 0.0309375 2.4375 0.0625 C-2.66089744 6.22623421 -8.20910758 11.85847701 -13.875 17.5 C-15.25268555 18.88348633 -15.25268555 18.88348633 -16.65820312 20.29492188 C-17.53025391 21.16568359 -18.40230469 22.03644531 -19.30078125 22.93359375 C-20.09524658 23.72693115 -20.88971191 24.52026855 -21.70825195 25.33764648 C-23.5625 27.0625 -23.5625 27.0625 -24.5625 27.0625 C-24.645 26.32 -24.7275 25.5775 -24.8125 24.8125 C-25.70637251 21.53496747 -27.12189116 20.34690987 -29.5625 18.0625 C-28.73105469 17.80855469 -27.89960938 17.55460937 -27.04296875 17.29296875 C-25.95628906 16.94878906 -24.86960938 16.60460937 -23.75 16.25 C-22.67105469 15.91355469 -21.59210938 15.57710937 -20.48046875 15.23046875 C-17.69317798 14.11480618 -16.48392587 13.27395241 -14.5625 11.0625 C-13.23729497 10.37981862 -11.90437818 9.7117959 -10.5625 9.0625 C-9.9025 8.4025 -9.2425 7.7425 -8.5625 7.0625 C-7.5725 7.0625 -6.5825 7.0625 -5.5625 7.0625 C-5.253125 6.093125 -4.94375 5.12375 -4.625 4.125 C-3.22113454 0.07856426 -3.22113454 0.07856426 0 0 Z " fill="#0C5B6D" transform="translate(261.5625,144.9375)"/>
<path d="M0 0 C0 3.77773318 -0.96765283 4.37439338 -3.5 7.0625 C-6.23444837 9.61867835 -6.23444837 9.61867835 -7 13 C-7.81984375 13.08314453 -7.81984375 13.08314453 -8.65625 13.16796875 C-12.03891243 14.36881391 -14.08257719 16.76663101 -16.5 19.3125 C-16.97308594 19.79912109 -17.44617188 20.28574219 -17.93359375 20.78710938 C-20.04577776 22.9607281 -22.14061497 25.14927963 -24.21875 27.35546875 C-26 29 -26 29 -28 29 C-28.33 29.99 -28.66 30.98 -29 32 C-32.44444444 35 -32.44444444 35 -35 35 C-35.20625 35.70125 -35.4125 36.4025 -35.625 37.125 C-37.45781577 40.95725116 -39.90251519 43.10452507 -43 46 C-43.99 45.67 -44.98 45.34 -46 45 C-41.33333333 40.33333333 -36.66666667 35.66666667 -32 31 C-31.13375 30.0925 -30.2675 29.185 -29.375 28.25 C-27 26 -27 26 -24 25 C-24 24.34 -24 23.68 -24 23 C-22.54882812 21.57006836 -22.54882812 21.57006836 -20.53125 19.90234375 C-15.95144237 16.00809374 -11.72332288 11.83665918 -7.5 7.5625 C-6.77296875 6.83095703 -6.0459375 6.09941406 -5.296875 5.34570312 C-3.52890501 3.56610176 -1.76333622 1.78419082 0 0 Z " fill="#178BA8" transform="translate(318,146)"/>
<path d="M0 0 C17.49 0 34.98 0 53 0 C53 0.99 53 1.98 53 3 C51.02 3.33 49.04 3.66 47 4 C46.505 3.01 46.505 3.01 46 2 C44.92516357 2.00523682 43.85032715 2.01047363 42.74291992 2.01586914 C38.75660026 2.03396401 34.77028424 2.04544846 30.78393555 2.05493164 C29.0583434 2.05996158 27.33275552 2.06678626 25.60717773 2.07543945 C23.1274307 2.08756361 20.64774 2.09324169 18.16796875 2.09765625 C17.01001045 2.10539818 17.01001045 2.10539818 15.82865906 2.11329651 C12.6169772 2.11363318 10.06979734 2.02326578 7 1 C6.67 1.66 6.34 2.32 6 3 C5.67 3 5.34 3 5 3 C4.67 3.66 4.34 4.32 4 5 C2.68 3.35 1.36 1.7 0 0 Z " fill="#89EDEC" transform="translate(177,54)"/>
<path d="M0 0 C2.31 0.33 4.62 0.66 7 1 C7.33 3.31 7.66 5.62 8 8 C8.99 8.33 9.98 8.66 11 9 C12.87658163 10.97894062 14.55960294 13.0731966 16.28125 15.1875 C17.96771124 17.25078906 17.96771124 17.25078906 21 18 C24 21.44444444 24 21.44444444 24 24 C19.9573573 23.46074904 18.06787294 21.45457406 15.234375 18.6328125 C13.90019531 17.30443359 13.90019531 17.30443359 12.5390625 15.94921875 C11.61867187 15.01722656 10.69828125 14.08523437 9.75 13.125 C8.34621094 11.73861328 8.34621094 11.73861328 6.9140625 10.32421875 C6.02976562 9.43605469 5.14546875 8.54789063 4.234375 7.6328125 C3.42194336 6.81699707 2.60951172 6.00118164 1.77246094 5.16064453 C0 3 0 3 0 0 Z " fill="#3392B3" transform="translate(121,231)"/>
<path d="M0 0 C2.125 0.9375 2.125 0.9375 4 2 C3.01 2 2.02 2 1 2 C0.77779785 2.54817383 0.5555957 3.09634766 0.32666016 3.66113281 C-1.40699979 6.71753 -3.73753725 8.98498952 -6.2265625 11.421875 C-6.73424164 11.92672424 -7.24192078 12.43157349 -7.76498413 12.95172119 C-9.38033842 14.55592096 -11.00252209 16.15300856 -12.625 17.75 C-13.72441698 18.83938107 -14.82338059 19.9292199 -15.921875 21.01953125 C-18.6093602 23.68501885 -21.30299021 26.34415143 -24 29 C-24 26 -24 26 -23 23 C-22.01 23 -21.02 23 -20 23 C-20 22.01 -20 21.02 -20 20 C-19.360625 19.71125 -18.72125 19.4225 -18.0625 19.125 C-15.84793921 18.17176549 -15.84793921 18.17176549 -15 16 C-14.34 16 -13.68 16 -13 16 C-12.9175 15.38125 -12.835 14.7625 -12.75 14.125 C-11.76374561 11.33061257 -10.56609601 11.283048 -8 10 C-7.19471111 7.94999129 -7.19471111 7.94999129 -7 6 C-5.68 5.67 -4.36 5.34 -3 5 C-2.87625 4.360625 -2.7525 3.72125 -2.625 3.0625 C-2.315625 2.0415625 -2.315625 2.0415625 -2 1 C-1.34 0.67 -0.68 0.34 0 0 Z " fill="#237389" transform="translate(201,134)"/>
<path d="M0 0 C8.66666667 8.66666667 17.33333333 17.33333333 26 26 C25.34 26.33 24.68 26.66 24 27 C20.7899917 25.80436938 19.00634996 24.13350048 16.875 21.5 C15.29700469 19.5704306 13.76541706 17.76541706 12 16 C11.38125 15.154375 10.7625 14.30875 10.125 13.4375 C7.97600118 10.97247195 7.16524451 10.33913334 4 10 C4 9.34 4 8.68 4 8 C3.01 7.67 2.02 7.34 1 7 C0.67 4.69 0.34 2.38 0 0 Z " fill="#175364" transform="translate(168,170)"/>
<path d="M0 0 C2 2 2 2 2.22705078 4.98095703 C2.21657715 6.22731934 2.20610352 7.47368164 2.1953125 8.7578125 C2.1924826 9.42086395 2.18965271 10.08391541 2.18673706 10.76705933 C2.17553435 12.88655583 2.15043051 15.00563104 2.125 17.125 C2.11497028 18.56119182 2.10584441 19.99739025 2.09765625 21.43359375 C2.075595 24.95586628 2.04106494 28.47789203 2 32 C2.66 32 3.32 32 4 32 C4 32.99 4 33.98 4 35 C3.34 35 2.68 35 2 35 C2 36.98 2 38.96 2 41 C1.34 40.67 0.68 40.34 0 40 C0 26.8 0 13.6 0 0 Z " fill="#1C7388" transform="translate(86,159)"/>
<path d="M0 0 C3.16115776 1.36983503 3.9927092 1.9890638 6 5 C-11.16 5 -28.32 5 -46 5 C-46 4.67 -46 4.34 -46 4 C-44.78417236 3.97494385 -43.56834473 3.9498877 -42.31567383 3.92407227 C-37.79620183 3.82975811 -33.27687492 3.72959631 -28.75756836 3.62768555 C-26.80317585 3.58442742 -24.84874778 3.54274602 -22.89428711 3.50268555 C-20.08175955 3.44476164 -17.26940952 3.38113127 -14.45703125 3.31640625 C-13.58601273 3.29969376 -12.7149942 3.28298126 -11.81758118 3.26576233 C-7.76521479 3.16725168 -3.95444172 2.99480584 0 2 C0 1.34 0 0.68 0 0 Z " fill="#40ACCD" transform="translate(223,283)"/>
<path d="M0 0 C1.2065625 0.0309375 1.2065625 0.0309375 2.4375 0.0625 C-2.83351414 6.47319287 -8.65378152 12.24840512 -14.5625 18.0625 C-14.8925 17.0725 -15.2225 16.0825 -15.5625 15.0625 C-16.2225 14.7325 -16.8825 14.4025 -17.5625 14.0625 C-15.41659771 11.70200749 -13.41649218 10.44346396 -10.5625 9.0625 C-9.9025 8.4025 -9.2425 7.7425 -8.5625 7.0625 C-7.5725 7.0625 -6.5825 7.0625 -5.5625 7.0625 C-5.253125 6.093125 -4.94375 5.12375 -4.625 4.125 C-3.22113454 0.07856426 -3.22113454 0.07856426 0 0 Z " fill="#0B5F75" transform="translate(261.5625,144.9375)"/>
<path d="M0 0 C0.66 0.99 1.32 1.98 2 3 C-2.75 7 -2.75 7 -5 7 C-4.67 7.99 -4.34 8.98 -4 10 C-5.2065625 10.8971875 -5.2065625 10.8971875 -6.4375 11.8125 C-9.22327984 13.80947276 -9.22327984 13.80947276 -10 17 C-11.65 17.33 -13.3 17.66 -15 18 C-14.41889329 14.57245533 -13.31446376 12.95461339 -10.83984375 10.546875 C-10.21142578 9.928125 -9.58300781 9.309375 -8.93554688 8.671875 C-8.27619141 8.03765625 -7.61683594 7.4034375 -6.9375 6.75 C-6.27427734 6.1003125 -5.61105469 5.450625 -4.92773438 4.78125 C-3.29170683 3.1805324 -1.64909088 1.58723807 0 0 Z " fill="#39AAC4" transform="translate(254,155)"/>
<path d="M0 0 C0.66 0 1.32 0 2 0 C2.474375 0.639375 2.94875 1.27875 3.4375 1.9375 C4.9091365 4.28372963 4.9091365 4.28372963 8 5 C9.01765927 6.99107248 10.01577854 8.99218823 11 11 C13.06167261 13.31418291 13.06167261 13.31418291 15 15 C14.67 15.99 14.34 16.98 14 18 C11.84144971 15.94952733 9.69868479 13.88605319 7.5625 11.8125 C6.64500977 10.9452832 6.64500977 10.9452832 5.70898438 10.06054688 C0.20252913 4.67578125 0.20252913 4.67578125 0 0 Z " fill="#2F8BA9" transform="translate(87,196)"/>
<path d="M0 0 C0.99 0.495 0.99 0.495 2 1 C1.01 1.495 1.01 1.495 0 2 C0 1.34 0 0.68 0 0 Z M-1 2 C-0.34 2.66 0.32 3.32 1 4 C-1.4193271 6.55757436 -3.58888128 8.75528648 -6.625 10.5625 C-9.18724972 12.11333536 -10.27186913 13.595644 -12 16 C-13.30144802 17.04115841 -14.62797869 18.05377841 -16 19 C-15.51946314 14.67516825 -14.34218019 12.76923502 -11 10 C-10.319375 9.690625 -9.63875 9.38125 -8.9375 9.0625 C-6.29301229 7.61229706 -5.5093854 5.55939264 -4 3 C-3.01 2.67 -2.02 2.34 -1 2 Z " fill="#30A5C3" transform="translate(228,183)"/>
<path d="M0 0 C1.65 0 3.3 0 5 0 C0.01595832 6.03331362 -5.41915303 11.5184171 -11 17 C-11 13.69747512 -10.46920223 11.93840447 -9 9 C-6.41970421 6.58617491 -5.5934292 6 -2 6 C-1.855625 5.38125 -1.71125 4.7625 -1.5625 4.125 C-1 2 -1 2 0 0 Z " fill="#1C6374" transform="translate(252,261)"/>
<path d="M0 0 C0.66 0.33 1.32 0.66 2 1 C-3.42465753 7.78082192 -3.42465753 7.78082192 -7 10 C-7.66 10 -8.32 10 -9 10 C-9.20625 10.70125 -9.4125 11.4025 -9.625 12.125 C-11.45781577 15.95725116 -13.90251519 18.10452507 -17 21 C-17.99 20.67 -18.98 20.34 -20 20 C-13.33333333 13.33333333 -6.66666667 6.66666667 0 0 Z " fill="#2397B4" transform="translate(292,171)"/>
<path d="M0 0 C1.65 0 3.3 0 5 0 C5 0.66 5 1.32 5 2 C5.721875 2.20625 6.44375 2.4125 7.1875 2.625 C10.97218384 4.47528988 12.52258653 6.60240438 15 10 C15 10.66 15 11.32 15 12 C10.94861652 11.47276516 9.1377578 9.4499977 6.375 6.5625 C5.59898437 5.75941406 4.82296875 4.95632812 4.0234375 4.12890625 C3.35570312 3.42636719 2.68796875 2.72382813 2 2 C1.34 1.34 0.68 0.68 0 0 Z " fill="#1B6175" transform="translate(202,136)"/>
<path d="M0 0 C0.66 0.66 1.32 1.32 2 2 C1.67 2.99 1.34 3.98 1 5 C1.66 5 2.32 5 3 5 C5.125 6.875 5.125 6.875 7 9 C7 9.66 7 10.32 7 11 C8.32 11.66 9.64 12.32 11 13 C11 13.66 11 14.32 11 15 C7.26047681 14.42856724 5.45957185 12.89210549 2.8125 10.25 C1.77029297 9.23679687 1.77029297 9.23679687 0.70703125 8.203125 C-1.18947631 5.75545849 -1.64352223 4.04336247 -2 1 C-1.34 0.67 -0.68 0.34 0 0 Z " fill="#3AA5CA" transform="translate(166,272)"/>
<path d="M0 0 C0 3.37075543 -0.70458685 4.71273253 -2.3125 7.625 C-2.74175781 8.42164063 -3.17101562 9.21828125 -3.61328125 10.0390625 C-5 12 -5 12 -8 13 C-8.33 13.66 -8.66 14.32 -9 15 C-9.80859375 12.83203125 -9.80859375 12.83203125 -10 10 C-7.91015625 7.32421875 -7.91015625 7.32421875 -5.0625 4.6875 C-4.12535156 3.80449219 -3.18820313 2.92148438 -2.22265625 2.01171875 C-1.48917969 1.34785156 -0.75570312 0.68398437 0 0 Z " fill="#2B8BA2" transform="translate(214,194)"/>
<path d="M0 0 C1.32 0.33 2.64 0.66 4 1 C-0.62 5.62 -5.24 10.24 -10 15 C-10.33 13.68 -10.66 12.36 -11 11 C-10.34 10.34 -9.68 9.68 -9 9 C-8.01 9 -7.02 9 -6 9 C-6 8.01 -6 7.02 -6 6 C-5.34 6 -4.68 6 -4 6 C-4 5.34 -4 4.68 -4 4 C-3.01 4 -2.02 4 -1 4 C-0.67 2.68 -0.34 1.36 0 0 Z " fill="#1F687F" transform="translate(315,199)"/>
<path d="M0 0 C0.66 0.33 1.32 0.66 2 1 C0.41438362 4.85593074 -2.06509954 7.33216291 -5 10.25 C-5.886875 11.14203125 -6.77375 12.0340625 -7.6875 12.953125 C-10 15 -10 15 -12 15 C-10.49017269 11.57143381 -8.48286031 9.04321784 -6 6.25 C-4.948125 5.05117187 -4.948125 5.05117187 -3.875 3.828125 C-2 2 -2 2 0 2 C0 1.34 0 0.68 0 0 Z " fill="#2997B5" transform="translate(158,176)"/>
<path d="M0 0 C0.33 0.66 0.66 1.32 1 2 C0.34 1.67 -0.32 1.34 -1 1 C-0.67 0.67 -0.34 0.34 0 0 Z M-3 2 C-1 3 -1 3 -1 3 Z M-3 3 C-3.1875 4.875 -3.1875 4.875 -4 7 C-6.375 8.0625 -6.375 8.0625 -9 9 C-10.94032404 10.18895236 -10.94032404 10.18895236 -12 12 C-11.76956136 14.65466049 -11.76956136 14.65466049 -11 17 C-12.32 16.34 -13.64 15.68 -15 15 C-15 12 -15 12 -13.13671875 9.73828125 C-12.32847656 8.93777344 -11.52023438 8.13726562 -10.6875 7.3125 C-9.88699219 6.50425781 -9.08648437 5.69601563 -8.26171875 4.86328125 C-6 3 -6 3 -3 3 Z " fill="#0B6D89" transform="translate(156,185)"/>
<path d="M0 0 C0.66 0.33 1.32 0.66 2 1 C1.36191406 1.62648438 0.72382812 2.25296875 0.06640625 2.8984375 C-0.75988281 3.71570313 -1.58617188 4.53296875 -2.4375 5.375 C-3.26121094 6.18710938 -4.08492187 6.99921875 -4.93359375 7.8359375 C-7.03434672 9.82348515 -7.03434672 9.82348515 -8 12 C-10.3140622 12.73075648 -12.64828869 13.40138258 -15 14 C-11.38560502 9.43714676 -7.99270743 6.10657351 -3 3 C-1.20605554 1.37648891 -1.20605554 1.37648891 0 0 Z " fill="#1E809B" transform="translate(127,104)"/>
<path d="M0 0 C4.875 4.625 4.875 4.625 6 8 C8.01508358 8.73323796 8.01508358 8.73323796 10 9 C10 9.99 10 10.98 10 12 C4.73487298 10.74639833 1.14505244 8.38299861 -2 4 C-2 3.01 -2 2.02 -2 1 C-1.34 0.67 -0.68 0.34 0 0 Z " fill="#37A3C7" transform="translate(149,256)"/>
<path d="M0 0 C3.40490058 0.25221486 4.16501243 1.18563899 6.5 3.8125 C6.91636719 4.34746094 7.33273438 4.88242188 7.76171875 5.43359375 C9.35578563 7.45006321 11.15044998 9.21895183 13 11 C10.525 12.485 10.525 12.485 8 14 C7.67 11.36 7.34 8.72 7 6 C5.35 5.67 3.7 5.34 2 5 C2 3.68 2 2.36 2 1 C1.34 0.67 0.68 0.34 0 0 Z " fill="#34B2D8" transform="translate(184,245)"/>
<path d="M0 0 C0.97110486 3.02121511 1.13617383 5.00463263 0 8 C-0.99 8.495 -0.99 8.495 -2 9 C-2.33 8.34 -2.66 7.68 -3 7 C-4.98 7.99 -4.98 7.99 -7 9 C-6.82374165 6.62051228 -6.30280227 5.29774151 -4.59765625 3.62109375 C-3.09350908 2.37884514 -1.54870149 1.18623944 0 0 Z " fill="#3699B2" transform="translate(238,171)"/>
<path d="M0 0 C4.68191549 0.45738073 6.63104174 2.19110394 9.8125 5.5625 C10.60269531 6.38878906 11.39289063 7.21507812 12.20703125 8.06640625 C12.79871094 8.70449219 13.39039063 9.34257812 14 10 C13.01 10.495 13.01 10.495 12 11 C8.7899917 9.80436938 7.00634996 8.13350048 4.875 5.5 C3.29700469 3.5704306 1.76541706 1.76541706 0 0 Z " fill="#1B5D6E" transform="translate(180,186)"/>
<path d="M0 0 C0.66 0.33 1.32 0.66 2 1 C-1.67832017 5.52615993 -5.41086363 9.39424999 -10 13 C-10.66 12.67 -11.32 12.34 -12 12 C-11.04882866 10.8274869 -10.08882991 9.66212985 -9.125 8.5 C-8.32449219 7.52546875 -8.32449219 7.52546875 -7.5078125 6.53125 C-7.01023438 6.0259375 -6.51265625 5.520625 -6 5 C-5.34 5 -4.68 5 -4 5 C-3.67 4.01 -3.34 3.02 -3 2 C-2.01 1.34 -1.02 0.68 0 0 Z " fill="#1889A3" transform="translate(247,216)"/>
<path d="M0 0 C7.48291572 6.15034169 7.48291572 6.15034169 10 10 C8.35 9.67 6.7 9.34 5 9 C4.67 8.01 4.34 7.02 4 6 C1.49552484 4.78130071 1.49552484 4.78130071 -1 4 C-0.67 2.68 -0.34 1.36 0 0 Z " fill="#5BACB5" transform="translate(246,70)"/>
<path d="M0 0 C6.88016529 1.98760331 6.88016529 1.98760331 9 5 C9.6875 7.6875 9.6875 7.6875 10 10 C2.51708428 3.84965831 2.51708428 3.84965831 0 0 Z " fill="#3493B2" transform="translate(155,267)"/>
<path d="M0 0 C0 4.13122742 -1.4277594 5.81854452 -4 9 C-7.25 10.375 -7.25 10.375 -10 11 C-6.79239749 7.19364503 -3.59253891 3.45436433 0 0 Z " fill="#2B7E91" transform="translate(225,183)"/>
<path d="M0 0 C2.3125 0.1875 2.3125 0.1875 5 1 C6.625 3.4375 6.625 3.4375 8 6 C8.99 6.66 9.98 7.32 11 8 C11 8.66 11 9.32 11 10 C7.81326038 8.59698853 5.67778594 6.92234929 3.25 4.4375 C2.63640625 3.81746094 2.0228125 3.19742188 1.390625 2.55859375 C0 1 0 1 0 0 Z " fill="#195362" transform="translate(226,159)"/>
<path d="M0 0 C7.48291572 6.15034169 7.48291572 6.15034169 10 10 C8.35 9.67 6.7 9.34 5 9 C5 8.01 5 7.02 5 6 C3.68 5.67 2.36 5.34 1 5 C0.67 3.35 0.34 1.7 0 0 Z " fill="#4B97A5" transform="translate(256,80)"/>
<path d="M0 0 C0.78375 0.04125 1.5675 0.0825 2.375 0.125 C1.42078192 1.27426266 0.46147955 2.41930541 -0.5 3.5625 C-1.03367187 4.20058594 -1.56734375 4.83867187 -2.1171875 5.49609375 C-3.625 7.125 -3.625 7.125 -5.625 8.125 C-4.59375 0.21875 -4.59375 0.21875 0 0 Z " fill="#0B6B82" transform="translate(261.625,144.875)"/>
<path d="M0 0 C1.14926266 0.95421808 2.29430541 1.91352045 3.4375 2.875 C4.07558594 3.40867187 4.71367187 3.94234375 5.37109375 4.4921875 C7 6 7 6 8 8 C6.35 8 4.7 8 3 8 C3 6.68 3 5.36 3 4 C1.35 3.67 -0.3 3.34 -2 3 C-1.34 2.67 -0.68 2.34 0 2 C0 1.34 0 0.68 0 0 Z " fill="#4697A9" transform="translate(270,94)"/>
<path d="M0 0 C1.9375 0.75 1.9375 0.75 4 2 C4.75 4.125 4.75 4.125 5 6 C3.02 6 1.04 6 -1 6 C-0.67 4.02 -0.34 2.04 0 0 Z " fill="#53B0C0" transform="translate(265,90)"/>
<path d="M0 0 C6.57142857 5.14285714 6.57142857 5.14285714 8 9 C6.68 9 5.36 9 4 9 C3.34 7.35 2.68 5.7 2 4 C1.01 4.495 1.01 4.495 0 5 C0 3.35 0 1.7 0 0 Z " fill="#37B5DA" transform="translate(197,256)"/>
<path d="M0 0 C0.99 0.33 1.98 0.66 3 1 C0.69 3.31 -1.62 5.62 -4 8 C-4.99 7.67 -5.98 7.34 -7 7 C-4.69 4.69 -2.38 2.38 0 0 Z " fill="#1B8EAA" transform="translate(279,184)"/>
<path d="M0 0 C0.33 0.66 0.66 1.32 1 2 C-0.125 4.5625 -0.125 4.5625 -2 7 C-4.6875 7.8125 -4.6875 7.8125 -7 8 C-6.02133662 6.85373678 -5.04205413 5.70800212 -4.0625 4.5625 C-3.51722656 3.92441406 -2.97195312 3.28632813 -2.41015625 2.62890625 C-1.63204305 1.73008851 -0.84063472 0.84063472 0 0 Z " fill="#1F677E" transform="translate(103,126)"/>
<path d="M0 0 C0 3.20395416 -0.74335022 5.09399739 -2 8 C-3.65 8 -5.3 8 -7 8 C-6.02133662 6.85373678 -5.04205413 5.70800212 -4.0625 4.5625 C-3.51722656 3.92441406 -2.97195312 3.28632812 -2.41015625 2.62890625 C-1.63204305 1.73008851 -0.84063472 0.84063472 0 0 Z " fill="#1D677F" transform="translate(111,118)"/>
<path d="M0 0 C1.14926266 0.95421808 2.29430541 1.91352045 3.4375 2.875 C4.07558594 3.40867187 4.71367187 3.94234375 5.37109375 4.4921875 C7 6 7 6 8 8 C4.89347355 7.6641593 3.39585697 7.40950721 1.1875 5.125 C0 3 0 3 0 0 Z " fill="#5EABB3" transform="translate(238,62)"/>
<path d="M0 0 C1 2 1 2 0.4375 4.5625 C-1 7 -1 7 -4.125 7.8125 C-5.548125 7.9053125 -5.548125 7.9053125 -7 8 C-6.02133662 6.85373678 -5.04205413 5.70800212 -4.0625 4.5625 C-3.51722656 3.92441406 -2.97195312 3.28632812 -2.41015625 2.62890625 C-1.63204305 1.73008851 -0.84063472 0.84063472 0 0 Z " fill="#1D677E" transform="translate(167,62)"/>
<path d="M0 0 C1.14926266 0.95421808 2.29430541 1.91352045 3.4375 2.875 C4.07558594 3.40867188 4.71367187 3.94234375 5.37109375 4.4921875 C7 6 7 6 8 8 C5.5625 7.625 5.5625 7.625 3 7 C2.67 6.34 2.34 5.68 2 5 C1.01 4.34 0.02 3.68 -1 3 C-0.67 2.01 -0.34 1.02 0 0 Z " fill="#62B2B4" transform="translate(230,54)"/>
<path d="M0 0 C0.5534764 2.07553648 1 3.84365964 1 6 C-0.65 5.67 -2.3 5.34 -4 5 C-4 3.68 -4 2.36 -4 1 C-2.68 0.67 -1.36 0.34 0 0 Z " fill="#0E6D85" transform="translate(174,224)"/>
<path d="M0 0 C0 3.86695678 -1.41909971 6.5088452 -3 10 C-3.66 9.67 -4.32 9.34 -5 9 C-4.5206753 4.68607774 -3.2542015 2.83430453 0 0 Z " fill="#2B8399" transform="translate(209,199)"/>
<path d="M0 0 C3.25543229 0.34879632 4.01873107 1.02133261 6.25 3.5625 C6.8275 4.366875 7.405 5.17125 8 6 C6.68 6 5.36 6 4 6 C3.34 5.34 2.68 4.68 2 4 C1.34 3.67 0.68 3.34 0 3 C0 2.01 0 1.02 0 0 Z " fill="#459AAD" transform="translate(280,106)"/>
<path d="M0 0 C0.99 0 1.98 0 3 0 C1.4169423 4.2742558 -1.50568404 6.26531794 -5 9 C-4.34 7.02 -3.68 5.04 -3 3 C-2.01 3 -1.02 3 0 3 C0 2.01 0 1.02 0 0 Z " fill="#27748C" transform="translate(181,154)"/>
<path d="M0 0 C0.33 1.32 0.66 2.64 1 4 C-0.1446875 4.6496875 -0.1446875 4.6496875 -1.3125 5.3125 C-3.58093768 6.73686785 -5.2199723 8.03260097 -7 10 C-7.66 9.67 -8.32 9.34 -9 9 C-6.03 6.03 -3.06 3.06 0 0 Z " fill="#1B6076" transform="translate(129,100)"/>
<path d="M0 0 C0.99 0 1.98 0 3 0 C6 3.33333333 6 3.33333333 6 6 C3.13275314 5.42655063 2.1385485 5.1385485 0 3 C0 2.01 0 1.02 0 0 Z " fill="#389FC1" transform="translate(139,249)"/>
<path d="M0 0 C-3.44615385 4.8 -3.44615385 4.8 -6.25 5.8125 C-7.11625 5.9053125 -7.11625 5.9053125 -8 6 C-6.53781513 1.3697479 -6.53781513 1.3697479 -4 -0.375 C-2 -1 -2 -1 0 0 Z " fill="#1C7892" transform="translate(146,88)"/>
<path d="M0 0 C0.99 0.33 1.98 0.66 3 1 C3 1.99 3 2.98 3 4 C0.36 4 -2.28 4 -5 4 C-4.67 3.34 -4.34 2.68 -4 2 C-2.68 2 -1.36 2 0 2 C0 1.34 0 0.68 0 0 Z " fill="#40C2ED" transform="translate(223,283)"/>
<path d="M0 0 C2.31 0.33 4.62 0.66 7 1 C7 1.66 7 2.32 7 3 C6.01 3 5.02 3 4 3 C3.67 3.99 3.34 4.98 3 6 C1.5 4.6875 1.5 4.6875 0 3 C0 2.01 0 1.02 0 0 Z " fill="#309AC0" transform="translate(121,231)"/>
<path d="M0 0 C0.33 0.66 0.66 1.32 1 2 C0.34 1.67 -0.32 1.34 -1 1 C-0.67 0.67 -0.34 0.34 0 0 Z M-3 2 C-1 3 -1 3 -1 3 Z M-6 3 C-5.01 3 -4.02 3 -3 3 C-3.33 4.32 -3.66 5.64 -4 7 C-5.32 7.33 -6.64 7.66 -8 8 C-7.125 4.125 -7.125 4.125 -6 3 Z " fill="#10677D" transform="translate(156,185)"/>
<path d="M0 0 C1 2 1 2 0.4375 4 C-1.57302108 6.79724672 -3.74418077 7.15065585 -7 8 C-6.02133662 6.85373678 -5.04205413 5.70800212 -4.0625 4.5625 C-3.51722656 3.92441406 -2.97195312 3.28632812 -2.41015625 2.62890625 C-1.63204305 1.73008851 -0.84063472 0.84063472 0 0 Z " fill="#1D6377" transform="translate(148,81)"/>
<path d="M0 0 C1.65 1.32 3.3 2.64 5 4 C4.67 4.99 4.34 5.98 4 7 C3.01 6.67 2.02 6.34 1 6 C0.67 4.02 0.34 2.04 0 0 Z " fill="#3CBBE5" transform="translate(217,276)"/>
<path d="M0 0 C1.32 0.33 2.64 0.66 4 1 C0.535 3.97 0.535 3.97 -3 7 C-3 5.68 -3 4.36 -3 3 C-2.01 3 -1.02 3 0 3 C0 2.01 0 1.02 0 0 Z " fill="#1C6277" transform="translate(277,237)"/>
<path d="M0 0 C0.66 0.33 1.32 0.66 2 1 C0.95125002 3.62187494 0.35068687 4.79371361 -2.125 6.25 C-2.74375 6.4975 -3.3625 6.745 -4 7 C-3.39816251 4.97954558 -2.72693904 2.97888961 -2 1 C-1.34 0.67 -0.68 0.34 0 0 Z " fill="#2C9DC0" transform="translate(142,192)"/>
<path d="M0 0 C0.99 0 1.98 0 3 0 C3 0.66 3 1.32 3 2 C3.99 2 4.98 2 6 2 C6.66 3.98 7.32 5.96 8 8 C6.85073734 7.04578192 5.70569459 6.08647955 4.5625 5.125 C3.92441406 4.59132812 3.28632813 4.05765625 2.62890625 3.5078125 C1 2 1 2 0 0 Z " fill="#1A596A" transform="translate(215,148)"/>
<path d="M0 0 C2.02054804 1.64169528 4.02043058 3.30911778 6 5 C6 5.33 6 5.66 6 6 C4.35 6 2.7 6 1 6 C0.4465236 3.92446352 0 2.15634036 0 0 Z " fill="#3B8DA5" transform="translate(298,122)"/>
<path d="M0 0 C0 3 0 3 -1 6 C-4.0625 7.1875 -4.0625 7.1875 -7 8 C-6.02133662 6.85373678 -5.04205413 5.70800212 -4.0625 4.5625 C-3.51722656 3.92441406 -2.97195312 3.28632812 -2.41015625 2.62890625 C-1.63204305 1.73008851 -0.84063472 0.84063472 0 0 Z " fill="#1D6177" transform="translate(119,110)"/>
<path d="M0 0 C0 3 0 3 -1 6 C-4.0625 7.1875 -4.0625 7.1875 -7 8 C-6.02133662 6.85373678 -5.04205413 5.70800212 -4.0625 4.5625 C-3.51722656 3.92441406 -2.97195312 3.28632812 -2.41015625 2.62890625 C-1.63204305 1.73008851 -0.84063472 0.84063472 0 0 Z " fill="#1B6075" transform="translate(175,54)"/>
<path d="M0 0 C1.65 1.65 3.3 3.3 5 5 C4.01 6.485 4.01 6.485 3 8 C1 4.25 1 4.25 1 2 C0.34 1.67 -0.32 1.34 -1 1 C-0.67 0.67 -0.34 0.34 0 0 Z " fill="#37B9E0" transform="translate(212,271)"/>
<path d="M0 0 C1.98 0.66 3.96 1.32 6 2 C6.33 3.65 6.66 5.3 7 7 C5.83040013 6.02433888 4.66438823 5.044375 3.5 4.0625 C2.8503125 3.51722656 2.200625 2.97195312 1.53125 2.41015625 C1.0259375 1.94480469 0.520625 1.47945312 0 1 C0 0.67 0 0.34 0 0 Z " fill="#2D839E" transform="translate(106,218)"/>
<path d="M0 0 C0.33 0 0.66 0 1 0 C1 2.31 1 4.62 1 7 C1.66 7 2.32 7 3 7 C3 7.99 3 8.98 3 10 C2.34 10 1.68 10 1 10 C0.67 10.66 0.34 11.32 0 12 C0 8.04 0 4.08 0 0 Z " fill="#137D92" transform="translate(87,184)"/>
<path d="M0 0 C1.875 0.25 1.875 0.25 4 1 C5.25 3.0625 5.25 3.0625 6 5 C4.02 4.34 2.04 3.68 0 3 C0 2.01 0 1.02 0 0 Z " fill="#32A8CA" transform="translate(163,224)"/>
<path d="M0 0 C1.32 0.33 2.64 0.66 4 1 C1.03 3.475 1.03 3.475 -2 6 C-2 4.68 -2 3.36 -2 2 C-1.34 2 -0.68 2 0 2 C0 1.34 0 0.68 0 0 Z " fill="#26798F" transform="translate(172,163)"/>
<path d="" fill="#000000" transform="translate(0,0)"/>
<path d="" fill="#000000" transform="translate(0,0)"/>
<path d="" fill="#000000" transform="translate(0,0)"/>
<path d="" fill="#000000" transform="translate(0,0)"/>
<path d="" fill="#000000" transform="translate(0,0)"/>
<path d="" fill="#000000" transform="translate(0,0)"/>
<path d="" fill="#000000" transform="translate(0,0)"/>
<path d="" fill="#000000" transform="translate(0,0)"/>
<path d="" fill="#000000" transform="translate(0,0)"/>
<path d="" fill="#000000" transform="translate(0,0)"/>
<path d="" fill="#000000" transform="translate(0,0)"/>
<path d="" fill="#000000" transform="translate(0,0)"/>
<path d="" fill="#000000" transform="translate(0,0)"/>
<path d="" fill="#000000" transform="translate(0,0)"/>
<path d="" fill="#000000" transform="translate(0,0)"/>
<path d="" fill="#000000" transform="translate(0,0)"/>
<path d="" fill="#000000" transform="translate(0,0)"/>
<path d="" fill="#000000" transform="translate(0,0)"/>
<path d="" fill="#000000" transform="translate(0,0)"/>
<path d="" fill="#000000" transform="translate(0,0)"/>
<path d="" fill="#000000" transform="translate(0,0)"/>
<path d="" fill="#000000" transform="translate(0,0)"/>
<path d="" fill="#000000" transform="translate(0,0)"/>
<path d="" fill="#000000" transform="translate(0,0)"/>
<path d="" fill="#000000" transform="translate(0,0)"/>
<path d="" fill="#000000" transform="translate(0,0)"/>
<path d="" fill="#000000" transform="translate(0,0)"/>
<path d="" fill="#000000" transform="translate(0,0)"/>
<path d="" fill="#000000" transform="translate(0,0)"/>
<path d="" fill="#000000" transform="translate(0,0)"/>
<path d="" fill="#000000" transform="translate(0,0)"/>
<path d="" fill="#000000" transform="translate(0,0)"/>
<path d="" fill="#000000" transform="translate(0,0)"/>
<path d="" fill="#000000" transform="translate(0,0)"/>
<path d="" fill="#000000" transform="translate(0,0)"/>
<path d="" fill="#000000" transform="translate(0,0)"/>
<path d="" fill="#000000" transform="translate(0,0)"/>
<path d="" fill="#000000" transform="translate(0,0)"/>
<path d="" fill="#000000" transform="translate(0,0)"/>
<path d="" fill="#000000" transform="translate(0,0)"/>
<path d="" fill="#000000" transform="translate(0,0)"/>
<path d="" fill="#000000" transform="translate(0,0)"/>
<path d="" fill="#000000" transform="translate(0,0)"/>
<path d="" fill="#000000" transform="translate(0,0)"/>
<path d="" fill="#000000" transform="translate(0,0)"/>
<path d="" fill="#000000" transform="translate(0,0)"/>
<path d="" fill="#000000" transform="translate(0,0)"/>
<path d="" fill="#000000" transform="translate(0,0)"/>
<path d="" fill="#000000" transform="translate(0,0)"/>
<path d="" fill="#000000" transform="translate(0,0)"/>
<path d="" fill="#000000" transform="translate(0,0)"/>
<path d="" fill="#000000" transform="translate(0,0)"/>
<path d="" fill="#000000" transform="translate(0,0)"/>
<path d="" fill="#000000" transform="translate(0,0)"/>
<path d="" fill="#000000" transform="translate(0,0)"/>
<path d="" fill="#000000" transform="translate(0,0)"/>
</svg>
